<?xml version="1.0" encoding="UTF-8"?>
<svg id="Lag_1" data-name="Lag 1" xmlns="http://www.w3.org/2000/svg" viewBox="0 0 160 160">
  <defs>
    <style>
      .cls-1 {
        fill: #8a817c;
      }
    </style>
  </defs>
  <path class="cls-1" d="M137.16,0H22.84C10.23,0,0,10.23,0,22.84v114.32c0,12.61,10.23,22.84,22.84,22.84h114.32c12.61,0,22.84-10.23,22.84-22.84V22.84c0-12.61-10.23-22.84-22.84-22.84ZM128.57,38.28h-12.45c-5.65.06-7.1,3.05-7.08,7.08l.08,12.45h19.45l-2.28,21.76h-17.17v62.96h-25.88l-.07-62.96-12.79-.03v-21.73h12.93s-.14-12.04-.14-12.04c-.3-17.79,7.15-28.36,25.05-29.21h20.34v21.73Z"/>
</svg>