<?xml version="1.0" encoding="UTF-8"?>
<svg id="Lag_1" data-name="Lag 1" xmlns="http://www.w3.org/2000/svg" viewBox="0 0 160 160">
  <defs>
    <style>
      .cls-1 {
        fill: #8a817c;
      }
    </style>
  </defs>
  <path class="cls-1" d="M76.43,159.91c-.32-.01-.65-.03-.97-.05.32.02.65.03.97.05Z"/>
  <path class="cls-1" d="M69.08,159.24c-1.07-.15-2.14-.32-3.21-.51,1.06.19,2.13.36,3.21.51Z"/>
  <path class="cls-1" d="M72.29,159.62c-.51-.05-1.02-.11-1.52-.17.51.06,1.01.12,1.52.17Z"/>
  <path class="cls-1" d="M84.55,159.86c-.32.02-.65.03-.97.05.33-.01.65-.03.97-.05Z"/>
  <path class="cls-1" d="M89.24,159.45c-.51.06-1.01.12-1.52.17.51-.05,1.02-.11,1.52-.17Z"/>
  <path class="cls-1" d="M100.14,157.44c-.31.08-.62.15-.93.22.31-.08.63-.14.93-.22Z"/>
  <path class="cls-1" d="M94.13,158.73c-1.07.19-2.14.36-3.21.51,1.08-.15,2.14-.32,3.21-.51Z"/>
  <path class="cls-1" d="M97.15,158.14c-.63.14-1.25.27-1.88.39.63-.12,1.26-.25,1.88-.39Z"/>
  <path class="cls-1" d="M60.8,157.66c-.31-.08-.62-.14-.94-.22.31.08.63.15.94.22Z"/>
  <path class="cls-1" d="M79.99,160s0,0,0,0,0,0,0,0c0,0,0,0-.01,0Z"/>
  <path class="cls-1" d="M160,80C160,35.82,124.18,0,80,0S0,35.82,0,80c0,37.21,25.4,68.47,59.8,77.42l.52-17.32c-.44.11-.87.2-1.31.29-7.16,1.44-14.59-.95-19.8-6.07-6.69-6.57-12.18-13.39-16.25-20.52-.43-.76.38-1.62,1.16-1.24,6.84,3.34,13.94,8.1,21.23,13.82,2.75,2.36,15.47,1.01,15.47,1.01,0,0-.31-8.88,5.37-10.69-36.64-6.89-44.54-36.7-27.91-64.33-1.33-6.8-1.76-13.2-.5-18.86.24-1.1,1.35-1.77,2.45-1.51,6.6,1.58,11.88,4.52,15.93,8.73,14.18-3.37,29.29-4.39,46.57,0,4.4-2.97,9.79-5.77,16.49-8.32,1.17-.45,2.46.29,2.67,1.52,1.16,6.78,1.1,13.36-.45,19.69,21.62,30.35,0,61.53-27.02,62.78,9.15,5.4,5.47,24.29,5.78,41.02,34.4-8.95,59.8-40.22,59.8-77.42Z"/>
  <path class="cls-1" d="M64.73,158.53c-.63-.12-1.25-.25-1.88-.39.62.14,1.25.27,1.88.39Z"/>
  <path class="cls-1" d="M59.8,157.43s.04,0,.06.01c-.02,0-.04-.01-.06-.02h0Z"/>
  <path class="cls-1" d="M90.92,159.24c-.56.08-1.12.15-1.68.21.56-.07,1.12-.14,1.68-.21Z"/>
  <path class="cls-1" d="M100.2,157.43s0,0,0,0c-.02,0-.04.01-.06.02.02,0,.04,0,.06-.01Z"/>
  <path class="cls-1" d="M95.27,158.53c-.38.07-.76.14-1.14.2.38-.07.76-.13,1.14-.2Z"/>
  <path class="cls-1" d="M99.2,157.66c-.68.17-1.37.32-2.05.47.68-.15,1.37-.31,2.05-.47Z"/>
  <path class="cls-1" d="M62.85,158.14c-.69-.15-1.37-.31-2.05-.47.68.17,1.37.33,2.05.47Z"/>
  <path class="cls-1" d="M75.45,159.86c-1.06-.06-2.12-.14-3.17-.24,1.06.1,2.11.18,3.17.24Z"/>
  <path class="cls-1" d="M70.76,159.45c-.56-.06-1.12-.14-1.68-.21.56.08,1.12.15,1.68.21Z"/>
  <path class="cls-1" d="M65.87,158.73c-.38-.07-.76-.13-1.14-.2.38.07.76.14,1.14.2Z"/>
  <path class="cls-1" d="M87.71,159.62c-1.05.1-2.1.18-3.17.24,1.06-.06,2.11-.14,3.17-.24Z"/>
  <path class="cls-1" d="M83.57,159.91c-1.18.05-2.37.09-3.57.09,1.19,0,2.38-.04,3.57-.09Z"/>
  <path class="cls-1" d="M79.99,160c-1.2,0-2.38-.04-3.57-.09,1.19.05,2.38.09,3.57.09Z"/>
</svg>