<?xml version="1.0" encoding="UTF-8"?>
<svg id="Lag_1" data-name="Lag 1" xmlns="http://www.w3.org/2000/svg" viewBox="0 0 160 160">
  <defs>
    <style>
      .cls-1 {
        fill: #8a817c;
      }
    </style>
  </defs>
  <path class="cls-1" d="M80,127.72c-25.9,0-46.97-20.64-47.69-46.37H0v55.97c0,12.53,10.15,22.68,22.68,22.68h114.64c12.53,0,22.68-10.15,22.68-22.68v-55.97h-32.31c-.72,25.73-21.78,46.37-47.69,46.37Z"/>
  <circle class="cls-1" cx="80" cy="79.76" r="34.89"/>
  <path class="cls-1" d="M137.32,0H22.68C10.15,0,0,10.15,0,22.68v44.87h33.93c5.48-20.31,24.02-35.27,46.07-35.27s40.59,14.95,46.07,35.27h33.93V22.68c0-12.53-10.15-22.68-22.68-22.68ZM132.78,40.58c-7.89,0-14.29-6.4-14.29-14.29s6.4-14.29,14.29-14.29,14.29,6.4,14.29,14.29-6.4,14.29-14.29,14.29Z"/>
</svg>