<?xml version="1.0" encoding="UTF-8"?>
<svg id="Lag_1" data-name="Lag 1" xmlns="http://www.w3.org/2000/svg" viewBox="0 0 160 160">
  <defs>
    <style>
      .cls-1 {
        fill: #8a817c;
      }
    </style>
  </defs>
  <path class="cls-1" d="M137.12,0H22.88C10.25,0,0,10.25,0,22.88v114.23c0,12.64,10.25,22.88,22.88,22.88h114.23c12.64,0,22.88-10.25,22.88-22.88V22.88c0-12.64-10.25-22.88-22.88-22.88ZM50.42,131.35h-24.94v-66.93h24.94v66.93ZM37.95,57.5c-7.76,0-14-6.24-14-14s6.24-14,14-14,14,6.24,14,14-6.24,14-14,14ZM134.53,131.35h-24.94v-37c0-6.93-3.74-9.56-9.7-9.56s-8.59,2.91-10.67,5.27v41.29h-24.94v-66.93h24.94v7.62c3.88-4.43,11.22-9.28,23-9.28,15.52,0,22.31,9.42,22.31,21.06v47.53Z"/>
</svg>